<mxfile host="app.diagrams.net" modified="2023-03-27T10:06:28.335Z" agent="Mozilla/5.0 (X11; Linux x86_64; rv:102.0) Gecko/20100101 Firefox/102.0" etag="yjMOpKWfeTkXR5c6TwYp" version="21.1.1" type="device">
  <diagram name="Page-1" id="S_AnUftgRwufIWKdGE8J">
    <mxGraphModel dx="2035" dy="623" grid="1" gridSize="10" guides="1" tooltips="1" connect="1" arrows="1" fold="1" page="1" pageScale="1" pageWidth="850" pageHeight="1100" math="0" shadow="0">
      <root>
        <mxCell id="0" />
        <mxCell id="1" parent="0" />
        <mxCell id="DR8zXilW78BF2vZYN9CU-185" value="Data" style="rounded=1;whiteSpace=wrap;html=1;verticalAlign=top;" vertex="1" parent="1">
          <mxGeometry x="896" y="340" width="140" height="60" as="geometry" />
        </mxCell>
        <mxCell id="DR8zXilW78BF2vZYN9CU-184" value="Data" style="rounded=1;whiteSpace=wrap;html=1;verticalAlign=top;" vertex="1" parent="1">
          <mxGeometry x="158" y="460" width="140" height="60" as="geometry" />
        </mxCell>
        <mxCell id="DR8zXilW78BF2vZYN9CU-124" value="Instructions" style="rounded=1;whiteSpace=wrap;html=1;verticalAlign=top;" vertex="1" parent="1">
          <mxGeometry x="610" y="350" width="120" height="190" as="geometry" />
        </mxCell>
        <mxCell id="DR8zXilW78BF2vZYN9CU-1" value="A" style="rounded=1;whiteSpace=wrap;html=1;verticalAlign=top;" vertex="1" parent="1">
          <mxGeometry x="120" y="100" width="140" height="60" as="geometry" />
        </mxCell>
        <mxCell id="DR8zXilW78BF2vZYN9CU-2" value="+" style="ellipse;whiteSpace=wrap;html=1;aspect=fixed;" vertex="1" parent="1">
          <mxGeometry x="130" y="370" width="40" height="40" as="geometry" />
        </mxCell>
        <mxCell id="DR8zXilW78BF2vZYN9CU-3" value="0" style="rounded=0;whiteSpace=wrap;html=1;" vertex="1" parent="1">
          <mxGeometry x="130" y="120" width="30" height="30" as="geometry" />
        </mxCell>
        <mxCell id="DR8zXilW78BF2vZYN9CU-4" value="1" style="rounded=0;whiteSpace=wrap;html=1;" vertex="1" parent="1">
          <mxGeometry x="160" y="120" width="30" height="30" as="geometry" />
        </mxCell>
        <mxCell id="DR8zXilW78BF2vZYN9CU-5" value="2" style="rounded=0;whiteSpace=wrap;html=1;" vertex="1" parent="1">
          <mxGeometry x="190" y="120" width="30" height="30" as="geometry" />
        </mxCell>
        <mxCell id="DR8zXilW78BF2vZYN9CU-6" value="3" style="rounded=0;whiteSpace=wrap;html=1;" vertex="1" parent="1">
          <mxGeometry x="220" y="120" width="30" height="30" as="geometry" />
        </mxCell>
        <mxCell id="DR8zXilW78BF2vZYN9CU-7" value="B" style="rounded=1;whiteSpace=wrap;html=1;verticalAlign=top;" vertex="1" parent="1">
          <mxGeometry x="340" y="100" width="140" height="60" as="geometry" />
        </mxCell>
        <mxCell id="DR8zXilW78BF2vZYN9CU-8" value="0" style="rounded=0;whiteSpace=wrap;html=1;" vertex="1" parent="1">
          <mxGeometry x="350" y="120" width="30" height="30" as="geometry" />
        </mxCell>
        <mxCell id="DR8zXilW78BF2vZYN9CU-9" value="1" style="rounded=0;whiteSpace=wrap;html=1;" vertex="1" parent="1">
          <mxGeometry x="380" y="120" width="30" height="30" as="geometry" />
        </mxCell>
        <mxCell id="DR8zXilW78BF2vZYN9CU-10" value="2" style="rounded=0;whiteSpace=wrap;html=1;" vertex="1" parent="1">
          <mxGeometry x="410" y="120" width="30" height="30" as="geometry" />
        </mxCell>
        <mxCell id="DR8zXilW78BF2vZYN9CU-11" value="3" style="rounded=0;whiteSpace=wrap;html=1;" vertex="1" parent="1">
          <mxGeometry x="440" y="120" width="30" height="30" as="geometry" />
        </mxCell>
        <mxCell id="DR8zXilW78BF2vZYN9CU-12" value="0" style="rounded=0;whiteSpace=wrap;html=1;" vertex="1" parent="1">
          <mxGeometry x="220" y="210" width="30" height="30" as="geometry" />
        </mxCell>
        <mxCell id="DR8zXilW78BF2vZYN9CU-13" value="1" style="rounded=0;whiteSpace=wrap;html=1;" vertex="1" parent="1">
          <mxGeometry x="250" y="210" width="30" height="30" as="geometry" />
        </mxCell>
        <mxCell id="DR8zXilW78BF2vZYN9CU-14" value="2" style="rounded=0;whiteSpace=wrap;html=1;" vertex="1" parent="1">
          <mxGeometry x="280" y="210" width="30" height="30" as="geometry" />
        </mxCell>
        <mxCell id="DR8zXilW78BF2vZYN9CU-15" value="3" style="rounded=0;whiteSpace=wrap;html=1;" vertex="1" parent="1">
          <mxGeometry x="310" y="210" width="30" height="30" as="geometry" />
        </mxCell>
        <mxCell id="DR8zXilW78BF2vZYN9CU-16" value="" style="endArrow=classic;html=1;rounded=0;entryX=0.5;entryY=0;entryDx=0;entryDy=0;exitX=0.5;exitY=1;exitDx=0;exitDy=0;" edge="1" parent="1" source="DR8zXilW78BF2vZYN9CU-3" target="DR8zXilW78BF2vZYN9CU-12">
          <mxGeometry width="50" height="50" relative="1" as="geometry">
            <mxPoint x="170" y="220" as="sourcePoint" />
            <mxPoint x="220" y="170" as="targetPoint" />
          </mxGeometry>
        </mxCell>
        <mxCell id="DR8zXilW78BF2vZYN9CU-21" value="" style="endArrow=classic;html=1;rounded=0;entryX=0.5;entryY=0;entryDx=0;entryDy=0;exitX=0.5;exitY=1;exitDx=0;exitDy=0;" edge="1" parent="1" source="DR8zXilW78BF2vZYN9CU-8" target="DR8zXilW78BF2vZYN9CU-12">
          <mxGeometry width="50" height="50" relative="1" as="geometry">
            <mxPoint x="155" y="160" as="sourcePoint" />
            <mxPoint x="245" y="220" as="targetPoint" />
          </mxGeometry>
        </mxCell>
        <mxCell id="DR8zXilW78BF2vZYN9CU-22" value="" style="endArrow=classic;html=1;rounded=0;entryX=0.5;entryY=0;entryDx=0;entryDy=0;exitX=0.5;exitY=1;exitDx=0;exitDy=0;" edge="1" parent="1" source="DR8zXilW78BF2vZYN9CU-4" target="DR8zXilW78BF2vZYN9CU-13">
          <mxGeometry width="50" height="50" relative="1" as="geometry">
            <mxPoint x="165" y="170" as="sourcePoint" />
            <mxPoint x="255" y="230" as="targetPoint" />
          </mxGeometry>
        </mxCell>
        <mxCell id="DR8zXilW78BF2vZYN9CU-23" value="" style="endArrow=classic;html=1;rounded=0;entryX=0.5;entryY=0;entryDx=0;entryDy=0;exitX=0.5;exitY=1;exitDx=0;exitDy=0;" edge="1" parent="1" source="DR8zXilW78BF2vZYN9CU-5" target="DR8zXilW78BF2vZYN9CU-14">
          <mxGeometry width="50" height="50" relative="1" as="geometry">
            <mxPoint x="175" y="180" as="sourcePoint" />
            <mxPoint x="265" y="240" as="targetPoint" />
          </mxGeometry>
        </mxCell>
        <mxCell id="DR8zXilW78BF2vZYN9CU-24" value="" style="endArrow=classic;html=1;rounded=0;entryX=0.5;entryY=0;entryDx=0;entryDy=0;exitX=0.5;exitY=1;exitDx=0;exitDy=0;" edge="1" parent="1" source="DR8zXilW78BF2vZYN9CU-6" target="DR8zXilW78BF2vZYN9CU-15">
          <mxGeometry width="50" height="50" relative="1" as="geometry">
            <mxPoint x="185" y="190" as="sourcePoint" />
            <mxPoint x="275" y="250" as="targetPoint" />
          </mxGeometry>
        </mxCell>
        <mxCell id="DR8zXilW78BF2vZYN9CU-25" value="" style="endArrow=classic;html=1;rounded=0;entryX=0.5;entryY=0;entryDx=0;entryDy=0;exitX=0.5;exitY=1;exitDx=0;exitDy=0;" edge="1" parent="1" source="DR8zXilW78BF2vZYN9CU-9" target="DR8zXilW78BF2vZYN9CU-13">
          <mxGeometry width="50" height="50" relative="1" as="geometry">
            <mxPoint x="195" y="200" as="sourcePoint" />
            <mxPoint x="285" y="260" as="targetPoint" />
          </mxGeometry>
        </mxCell>
        <mxCell id="DR8zXilW78BF2vZYN9CU-26" value="" style="endArrow=classic;html=1;rounded=0;entryX=0.5;entryY=0;entryDx=0;entryDy=0;exitX=0.5;exitY=1;exitDx=0;exitDy=0;" edge="1" parent="1" source="DR8zXilW78BF2vZYN9CU-10" target="DR8zXilW78BF2vZYN9CU-14">
          <mxGeometry width="50" height="50" relative="1" as="geometry">
            <mxPoint x="205" y="210" as="sourcePoint" />
            <mxPoint x="295" y="270" as="targetPoint" />
          </mxGeometry>
        </mxCell>
        <mxCell id="DR8zXilW78BF2vZYN9CU-27" value="" style="endArrow=classic;html=1;rounded=0;entryX=0.5;entryY=0;entryDx=0;entryDy=0;exitX=0.5;exitY=1;exitDx=0;exitDy=0;" edge="1" parent="1" source="DR8zXilW78BF2vZYN9CU-11" target="DR8zXilW78BF2vZYN9CU-15">
          <mxGeometry width="50" height="50" relative="1" as="geometry">
            <mxPoint x="215" y="220" as="sourcePoint" />
            <mxPoint x="305" y="280" as="targetPoint" />
          </mxGeometry>
        </mxCell>
        <mxCell id="DR8zXilW78BF2vZYN9CU-28" value="A" style="rounded=1;whiteSpace=wrap;html=1;verticalAlign=top;" vertex="1" parent="1">
          <mxGeometry x="540" y="100" width="140" height="60" as="geometry" />
        </mxCell>
        <mxCell id="DR8zXilW78BF2vZYN9CU-29" value="+" style="ellipse;whiteSpace=wrap;html=1;aspect=fixed;" vertex="1" parent="1">
          <mxGeometry x="560" y="205" width="40" height="40" as="geometry" />
        </mxCell>
        <mxCell id="DR8zXilW78BF2vZYN9CU-30" value="0" style="rounded=0;whiteSpace=wrap;html=1;" vertex="1" parent="1">
          <mxGeometry x="550" y="120" width="30" height="30" as="geometry" />
        </mxCell>
        <mxCell id="DR8zXilW78BF2vZYN9CU-31" value="1" style="rounded=0;whiteSpace=wrap;html=1;" vertex="1" parent="1">
          <mxGeometry x="580" y="120" width="30" height="30" as="geometry" />
        </mxCell>
        <mxCell id="DR8zXilW78BF2vZYN9CU-32" value="2" style="rounded=0;whiteSpace=wrap;html=1;" vertex="1" parent="1">
          <mxGeometry x="610" y="120" width="30" height="30" as="geometry" />
        </mxCell>
        <mxCell id="DR8zXilW78BF2vZYN9CU-33" value="3" style="rounded=0;whiteSpace=wrap;html=1;" vertex="1" parent="1">
          <mxGeometry x="640" y="120" width="30" height="30" as="geometry" />
        </mxCell>
        <mxCell id="DR8zXilW78BF2vZYN9CU-34" value="B" style="rounded=1;whiteSpace=wrap;html=1;verticalAlign=top;" vertex="1" parent="1">
          <mxGeometry x="760" y="100" width="140" height="60" as="geometry" />
        </mxCell>
        <mxCell id="DR8zXilW78BF2vZYN9CU-35" value="0" style="rounded=0;whiteSpace=wrap;html=1;" vertex="1" parent="1">
          <mxGeometry x="770" y="120" width="30" height="30" as="geometry" />
        </mxCell>
        <mxCell id="DR8zXilW78BF2vZYN9CU-36" value="1" style="rounded=0;whiteSpace=wrap;html=1;" vertex="1" parent="1">
          <mxGeometry x="800" y="120" width="30" height="30" as="geometry" />
        </mxCell>
        <mxCell id="DR8zXilW78BF2vZYN9CU-37" value="2" style="rounded=0;whiteSpace=wrap;html=1;" vertex="1" parent="1">
          <mxGeometry x="830" y="120" width="30" height="30" as="geometry" />
        </mxCell>
        <mxCell id="DR8zXilW78BF2vZYN9CU-38" value="3" style="rounded=0;whiteSpace=wrap;html=1;" vertex="1" parent="1">
          <mxGeometry x="860" y="120" width="30" height="30" as="geometry" />
        </mxCell>
        <mxCell id="DR8zXilW78BF2vZYN9CU-39" value="0" style="rounded=0;whiteSpace=wrap;html=1;" vertex="1" parent="1">
          <mxGeometry x="640" y="210" width="30" height="30" as="geometry" />
        </mxCell>
        <mxCell id="DR8zXilW78BF2vZYN9CU-40" value="1" style="rounded=0;whiteSpace=wrap;html=1;" vertex="1" parent="1">
          <mxGeometry x="670" y="210" width="30" height="30" as="geometry" />
        </mxCell>
        <mxCell id="DR8zXilW78BF2vZYN9CU-41" value="2" style="rounded=0;whiteSpace=wrap;html=1;" vertex="1" parent="1">
          <mxGeometry x="700" y="210" width="30" height="30" as="geometry" />
        </mxCell>
        <mxCell id="DR8zXilW78BF2vZYN9CU-42" value="3" style="rounded=0;whiteSpace=wrap;html=1;" vertex="1" parent="1">
          <mxGeometry x="730" y="210" width="30" height="30" as="geometry" />
        </mxCell>
        <mxCell id="DR8zXilW78BF2vZYN9CU-43" value="" style="endArrow=classic;html=1;rounded=0;entryX=0.5;entryY=0;entryDx=0;entryDy=0;exitX=0.5;exitY=1;exitDx=0;exitDy=0;" edge="1" parent="1" source="DR8zXilW78BF2vZYN9CU-30" target="DR8zXilW78BF2vZYN9CU-39">
          <mxGeometry width="50" height="50" relative="1" as="geometry">
            <mxPoint x="590" y="220" as="sourcePoint" />
            <mxPoint x="640" y="170" as="targetPoint" />
          </mxGeometry>
        </mxCell>
        <mxCell id="DR8zXilW78BF2vZYN9CU-44" value="" style="endArrow=classic;html=1;rounded=0;entryX=0.5;entryY=0;entryDx=0;entryDy=0;exitX=0.5;exitY=1;exitDx=0;exitDy=0;" edge="1" parent="1" source="DR8zXilW78BF2vZYN9CU-35" target="DR8zXilW78BF2vZYN9CU-39">
          <mxGeometry width="50" height="50" relative="1" as="geometry">
            <mxPoint x="575" y="160" as="sourcePoint" />
            <mxPoint x="665" y="220" as="targetPoint" />
          </mxGeometry>
        </mxCell>
        <mxCell id="DR8zXilW78BF2vZYN9CU-45" value="" style="endArrow=classic;html=1;rounded=0;entryX=0.5;entryY=0;entryDx=0;entryDy=0;exitX=0.5;exitY=1;exitDx=0;exitDy=0;" edge="1" parent="1" source="DR8zXilW78BF2vZYN9CU-31" target="DR8zXilW78BF2vZYN9CU-40">
          <mxGeometry width="50" height="50" relative="1" as="geometry">
            <mxPoint x="585" y="170" as="sourcePoint" />
            <mxPoint x="675" y="230" as="targetPoint" />
          </mxGeometry>
        </mxCell>
        <mxCell id="DR8zXilW78BF2vZYN9CU-46" value="" style="endArrow=classic;html=1;rounded=0;entryX=0.5;entryY=0;entryDx=0;entryDy=0;exitX=0.5;exitY=1;exitDx=0;exitDy=0;" edge="1" parent="1" source="DR8zXilW78BF2vZYN9CU-32" target="DR8zXilW78BF2vZYN9CU-41">
          <mxGeometry width="50" height="50" relative="1" as="geometry">
            <mxPoint x="595" y="180" as="sourcePoint" />
            <mxPoint x="685" y="240" as="targetPoint" />
          </mxGeometry>
        </mxCell>
        <mxCell id="DR8zXilW78BF2vZYN9CU-47" value="" style="endArrow=classic;html=1;rounded=0;entryX=0.5;entryY=0;entryDx=0;entryDy=0;exitX=0.5;exitY=1;exitDx=0;exitDy=0;" edge="1" parent="1" source="DR8zXilW78BF2vZYN9CU-33" target="DR8zXilW78BF2vZYN9CU-42">
          <mxGeometry width="50" height="50" relative="1" as="geometry">
            <mxPoint x="605" y="190" as="sourcePoint" />
            <mxPoint x="695" y="250" as="targetPoint" />
          </mxGeometry>
        </mxCell>
        <mxCell id="DR8zXilW78BF2vZYN9CU-48" value="" style="endArrow=classic;html=1;rounded=0;entryX=0.5;entryY=0;entryDx=0;entryDy=0;exitX=0.5;exitY=1;exitDx=0;exitDy=0;" edge="1" parent="1" source="DR8zXilW78BF2vZYN9CU-36" target="DR8zXilW78BF2vZYN9CU-40">
          <mxGeometry width="50" height="50" relative="1" as="geometry">
            <mxPoint x="615" y="200" as="sourcePoint" />
            <mxPoint x="705" y="260" as="targetPoint" />
          </mxGeometry>
        </mxCell>
        <mxCell id="DR8zXilW78BF2vZYN9CU-49" value="" style="endArrow=classic;html=1;rounded=0;entryX=0.5;entryY=0;entryDx=0;entryDy=0;exitX=0.5;exitY=1;exitDx=0;exitDy=0;" edge="1" parent="1" source="DR8zXilW78BF2vZYN9CU-37" target="DR8zXilW78BF2vZYN9CU-41">
          <mxGeometry width="50" height="50" relative="1" as="geometry">
            <mxPoint x="625" y="210" as="sourcePoint" />
            <mxPoint x="715" y="270" as="targetPoint" />
          </mxGeometry>
        </mxCell>
        <mxCell id="DR8zXilW78BF2vZYN9CU-50" value="" style="endArrow=classic;html=1;rounded=0;entryX=0.5;entryY=0;entryDx=0;entryDy=0;exitX=0.5;exitY=1;exitDx=0;exitDy=0;" edge="1" parent="1" source="DR8zXilW78BF2vZYN9CU-38" target="DR8zXilW78BF2vZYN9CU-42">
          <mxGeometry width="50" height="50" relative="1" as="geometry">
            <mxPoint x="635" y="220" as="sourcePoint" />
            <mxPoint x="725" y="280" as="targetPoint" />
          </mxGeometry>
        </mxCell>
        <mxCell id="DR8zXilW78BF2vZYN9CU-56" value="" style="group" vertex="1" connectable="0" parent="1">
          <mxGeometry x="200" y="370" width="50" height="40" as="geometry" />
        </mxCell>
        <mxCell id="DR8zXilW78BF2vZYN9CU-52" value="" style="rounded=0;whiteSpace=wrap;html=1;" vertex="1" parent="DR8zXilW78BF2vZYN9CU-56">
          <mxGeometry width="17.5" height="18.674285714285713" as="geometry" />
        </mxCell>
        <mxCell id="DR8zXilW78BF2vZYN9CU-53" value="" style="rounded=0;whiteSpace=wrap;html=1;" vertex="1" parent="DR8zXilW78BF2vZYN9CU-56">
          <mxGeometry x="32.5" width="17.5" height="18.674285714285713" as="geometry" />
        </mxCell>
        <mxCell id="DR8zXilW78BF2vZYN9CU-54" value="" style="shape=loopLimit;whiteSpace=wrap;html=1;rotation=-180;size=22;" vertex="1" parent="DR8zXilW78BF2vZYN9CU-56">
          <mxGeometry y="10.731707317073173" width="50" height="29.26829268292683" as="geometry" />
        </mxCell>
        <mxCell id="DR8zXilW78BF2vZYN9CU-57" value="" style="group" vertex="1" connectable="0" parent="1">
          <mxGeometry x="380" y="370" width="50" height="40" as="geometry" />
        </mxCell>
        <mxCell id="DR8zXilW78BF2vZYN9CU-58" value="" style="rounded=0;whiteSpace=wrap;html=1;" vertex="1" parent="DR8zXilW78BF2vZYN9CU-57">
          <mxGeometry width="17.5" height="18.674285714285713" as="geometry" />
        </mxCell>
        <mxCell id="DR8zXilW78BF2vZYN9CU-59" value="" style="rounded=0;whiteSpace=wrap;html=1;" vertex="1" parent="DR8zXilW78BF2vZYN9CU-57">
          <mxGeometry x="32.5" width="17.5" height="18.674285714285713" as="geometry" />
        </mxCell>
        <mxCell id="DR8zXilW78BF2vZYN9CU-60" value="" style="shape=loopLimit;whiteSpace=wrap;html=1;rotation=-180;size=22;" vertex="1" parent="DR8zXilW78BF2vZYN9CU-57">
          <mxGeometry y="10.731707317073173" width="50" height="29.26829268292683" as="geometry" />
        </mxCell>
        <mxCell id="DR8zXilW78BF2vZYN9CU-61" value="" style="group" vertex="1" connectable="0" parent="1">
          <mxGeometry x="260" y="370" width="50" height="40" as="geometry" />
        </mxCell>
        <mxCell id="DR8zXilW78BF2vZYN9CU-62" value="" style="rounded=0;whiteSpace=wrap;html=1;" vertex="1" parent="DR8zXilW78BF2vZYN9CU-61">
          <mxGeometry width="17.5" height="18.674285714285713" as="geometry" />
        </mxCell>
        <mxCell id="DR8zXilW78BF2vZYN9CU-63" value="" style="rounded=0;whiteSpace=wrap;html=1;" vertex="1" parent="DR8zXilW78BF2vZYN9CU-61">
          <mxGeometry x="32.5" width="17.5" height="18.674285714285713" as="geometry" />
        </mxCell>
        <mxCell id="DR8zXilW78BF2vZYN9CU-64" value="" style="shape=loopLimit;whiteSpace=wrap;html=1;rotation=-180;size=22;" vertex="1" parent="DR8zXilW78BF2vZYN9CU-61">
          <mxGeometry y="10.731707317073173" width="50" height="29.26829268292683" as="geometry" />
        </mxCell>
        <mxCell id="DR8zXilW78BF2vZYN9CU-65" value="" style="group" vertex="1" connectable="0" parent="1">
          <mxGeometry x="320" y="370" width="50" height="40" as="geometry" />
        </mxCell>
        <mxCell id="DR8zXilW78BF2vZYN9CU-66" value="" style="rounded=0;whiteSpace=wrap;html=1;" vertex="1" parent="DR8zXilW78BF2vZYN9CU-65">
          <mxGeometry width="17.5" height="18.674285714285713" as="geometry" />
        </mxCell>
        <mxCell id="DR8zXilW78BF2vZYN9CU-67" value="" style="rounded=0;whiteSpace=wrap;html=1;" vertex="1" parent="DR8zXilW78BF2vZYN9CU-65">
          <mxGeometry x="32.5" width="17.5" height="18.674285714285713" as="geometry" />
        </mxCell>
        <mxCell id="DR8zXilW78BF2vZYN9CU-68" value="" style="shape=loopLimit;whiteSpace=wrap;html=1;rotation=-180;size=22;" vertex="1" parent="DR8zXilW78BF2vZYN9CU-65">
          <mxGeometry y="10.731707317073173" width="50" height="29.26829268292683" as="geometry" />
        </mxCell>
        <mxCell id="DR8zXilW78BF2vZYN9CU-69" value="A" style="rounded=1;whiteSpace=wrap;html=1;verticalAlign=top;" vertex="1" parent="1">
          <mxGeometry x="130" y="280" width="140" height="60" as="geometry" />
        </mxCell>
        <mxCell id="DR8zXilW78BF2vZYN9CU-70" value="0" style="rounded=0;whiteSpace=wrap;html=1;" vertex="1" parent="1">
          <mxGeometry x="140" y="300" width="30" height="30" as="geometry" />
        </mxCell>
        <mxCell id="DR8zXilW78BF2vZYN9CU-71" value="1" style="rounded=0;whiteSpace=wrap;html=1;" vertex="1" parent="1">
          <mxGeometry x="170" y="300" width="30" height="30" as="geometry" />
        </mxCell>
        <mxCell id="DR8zXilW78BF2vZYN9CU-72" value="2" style="rounded=0;whiteSpace=wrap;html=1;" vertex="1" parent="1">
          <mxGeometry x="200" y="300" width="30" height="30" as="geometry" />
        </mxCell>
        <mxCell id="DR8zXilW78BF2vZYN9CU-73" value="3" style="rounded=0;whiteSpace=wrap;html=1;" vertex="1" parent="1">
          <mxGeometry x="230" y="300" width="30" height="30" as="geometry" />
        </mxCell>
        <mxCell id="DR8zXilW78BF2vZYN9CU-74" value="B" style="rounded=1;whiteSpace=wrap;html=1;verticalAlign=top;" vertex="1" parent="1">
          <mxGeometry x="350" y="280" width="140" height="60" as="geometry" />
        </mxCell>
        <mxCell id="DR8zXilW78BF2vZYN9CU-75" value="0" style="rounded=0;whiteSpace=wrap;html=1;" vertex="1" parent="1">
          <mxGeometry x="360" y="300" width="30" height="30" as="geometry" />
        </mxCell>
        <mxCell id="DR8zXilW78BF2vZYN9CU-76" value="1" style="rounded=0;whiteSpace=wrap;html=1;" vertex="1" parent="1">
          <mxGeometry x="390" y="300" width="30" height="30" as="geometry" />
        </mxCell>
        <mxCell id="DR8zXilW78BF2vZYN9CU-77" value="2" style="rounded=0;whiteSpace=wrap;html=1;" vertex="1" parent="1">
          <mxGeometry x="420" y="300" width="30" height="30" as="geometry" />
        </mxCell>
        <mxCell id="DR8zXilW78BF2vZYN9CU-78" value="3" style="rounded=0;whiteSpace=wrap;html=1;" vertex="1" parent="1">
          <mxGeometry x="450" y="300" width="30" height="30" as="geometry" />
        </mxCell>
        <mxCell id="DR8zXilW78BF2vZYN9CU-79" value="" style="endArrow=classic;html=1;rounded=0;entryX=0.5;entryY=0;entryDx=0;entryDy=0;exitX=0.5;exitY=1;exitDx=0;exitDy=0;" edge="1" parent="1" source="DR8zXilW78BF2vZYN9CU-70" target="DR8zXilW78BF2vZYN9CU-52">
          <mxGeometry width="50" height="50" relative="1" as="geometry">
            <mxPoint x="155" y="160" as="sourcePoint" />
            <mxPoint x="245" y="220" as="targetPoint" />
          </mxGeometry>
        </mxCell>
        <mxCell id="DR8zXilW78BF2vZYN9CU-80" value="" style="endArrow=classic;html=1;rounded=0;entryX=0.5;entryY=0;entryDx=0;entryDy=0;exitX=0.5;exitY=1;exitDx=0;exitDy=0;" edge="1" parent="1" source="DR8zXilW78BF2vZYN9CU-71" target="DR8zXilW78BF2vZYN9CU-62">
          <mxGeometry width="50" height="50" relative="1" as="geometry">
            <mxPoint x="165" y="340" as="sourcePoint" />
            <mxPoint x="219" y="380" as="targetPoint" />
          </mxGeometry>
        </mxCell>
        <mxCell id="DR8zXilW78BF2vZYN9CU-81" value="" style="endArrow=classic;html=1;rounded=0;entryX=0.5;entryY=0;entryDx=0;entryDy=0;exitX=0.5;exitY=1;exitDx=0;exitDy=0;" edge="1" parent="1" source="DR8zXilW78BF2vZYN9CU-72" target="DR8zXilW78BF2vZYN9CU-66">
          <mxGeometry width="50" height="50" relative="1" as="geometry">
            <mxPoint x="175" y="350" as="sourcePoint" />
            <mxPoint x="229" y="390" as="targetPoint" />
          </mxGeometry>
        </mxCell>
        <mxCell id="DR8zXilW78BF2vZYN9CU-83" value="" style="endArrow=classic;html=1;rounded=0;entryX=0.5;entryY=0;entryDx=0;entryDy=0;exitX=0.5;exitY=1;exitDx=0;exitDy=0;" edge="1" parent="1" source="DR8zXilW78BF2vZYN9CU-73" target="DR8zXilW78BF2vZYN9CU-58">
          <mxGeometry width="50" height="50" relative="1" as="geometry">
            <mxPoint x="185" y="360" as="sourcePoint" />
            <mxPoint x="239" y="400" as="targetPoint" />
          </mxGeometry>
        </mxCell>
        <mxCell id="DR8zXilW78BF2vZYN9CU-85" value="" style="group" vertex="1" connectable="0" parent="1">
          <mxGeometry x="780" y="430" width="50" height="40" as="geometry" />
        </mxCell>
        <mxCell id="DR8zXilW78BF2vZYN9CU-86" value="" style="rounded=0;whiteSpace=wrap;html=1;" vertex="1" parent="DR8zXilW78BF2vZYN9CU-85">
          <mxGeometry width="17.5" height="18.674285714285713" as="geometry" />
        </mxCell>
        <mxCell id="DR8zXilW78BF2vZYN9CU-87" value="" style="rounded=0;whiteSpace=wrap;html=1;" vertex="1" parent="DR8zXilW78BF2vZYN9CU-85">
          <mxGeometry x="32.5" width="17.5" height="18.674285714285713" as="geometry" />
        </mxCell>
        <mxCell id="DR8zXilW78BF2vZYN9CU-88" value="" style="shape=loopLimit;whiteSpace=wrap;html=1;rotation=-180;size=22;" vertex="1" parent="DR8zXilW78BF2vZYN9CU-85">
          <mxGeometry y="10.731707317073173" width="50" height="29.26829268292683" as="geometry" />
        </mxCell>
        <mxCell id="DR8zXilW78BF2vZYN9CU-89" value="" style="group" vertex="1" connectable="0" parent="1">
          <mxGeometry x="960" y="430" width="50" height="40" as="geometry" />
        </mxCell>
        <mxCell id="DR8zXilW78BF2vZYN9CU-90" value="" style="rounded=0;whiteSpace=wrap;html=1;" vertex="1" parent="DR8zXilW78BF2vZYN9CU-89">
          <mxGeometry width="17.5" height="18.674285714285713" as="geometry" />
        </mxCell>
        <mxCell id="DR8zXilW78BF2vZYN9CU-91" value="" style="rounded=0;whiteSpace=wrap;html=1;" vertex="1" parent="DR8zXilW78BF2vZYN9CU-89">
          <mxGeometry x="32.5" width="17.5" height="18.674285714285713" as="geometry" />
        </mxCell>
        <mxCell id="DR8zXilW78BF2vZYN9CU-92" value="" style="shape=loopLimit;whiteSpace=wrap;html=1;rotation=-180;size=22;" vertex="1" parent="DR8zXilW78BF2vZYN9CU-89">
          <mxGeometry y="10.731707317073173" width="50" height="29.26829268292683" as="geometry" />
        </mxCell>
        <mxCell id="DR8zXilW78BF2vZYN9CU-93" value="" style="group" vertex="1" connectable="0" parent="1">
          <mxGeometry x="840" y="430" width="50" height="40" as="geometry" />
        </mxCell>
        <mxCell id="DR8zXilW78BF2vZYN9CU-94" value="" style="rounded=0;whiteSpace=wrap;html=1;" vertex="1" parent="DR8zXilW78BF2vZYN9CU-93">
          <mxGeometry width="17.5" height="18.674285714285713" as="geometry" />
        </mxCell>
        <mxCell id="DR8zXilW78BF2vZYN9CU-95" value="" style="rounded=0;whiteSpace=wrap;html=1;" vertex="1" parent="DR8zXilW78BF2vZYN9CU-93">
          <mxGeometry x="32.5" width="17.5" height="18.674285714285713" as="geometry" />
        </mxCell>
        <mxCell id="DR8zXilW78BF2vZYN9CU-96" value="" style="shape=loopLimit;whiteSpace=wrap;html=1;rotation=-180;size=22;" vertex="1" parent="DR8zXilW78BF2vZYN9CU-93">
          <mxGeometry y="10.731707317073173" width="50" height="29.26829268292683" as="geometry" />
        </mxCell>
        <mxCell id="DR8zXilW78BF2vZYN9CU-97" value="" style="group" vertex="1" connectable="0" parent="1">
          <mxGeometry x="900" y="430" width="50" height="40" as="geometry" />
        </mxCell>
        <mxCell id="DR8zXilW78BF2vZYN9CU-98" value="" style="rounded=0;whiteSpace=wrap;html=1;" vertex="1" parent="DR8zXilW78BF2vZYN9CU-97">
          <mxGeometry width="17.5" height="18.674285714285713" as="geometry" />
        </mxCell>
        <mxCell id="DR8zXilW78BF2vZYN9CU-99" value="" style="rounded=0;whiteSpace=wrap;html=1;" vertex="1" parent="DR8zXilW78BF2vZYN9CU-97">
          <mxGeometry x="32.5" width="17.5" height="18.674285714285713" as="geometry" />
        </mxCell>
        <mxCell id="DR8zXilW78BF2vZYN9CU-100" value="" style="shape=loopLimit;whiteSpace=wrap;html=1;rotation=-180;size=22;" vertex="1" parent="DR8zXilW78BF2vZYN9CU-97">
          <mxGeometry y="10.731707317073173" width="50" height="29.26829268292683" as="geometry" />
        </mxCell>
        <mxCell id="DR8zXilW78BF2vZYN9CU-101" value="Data" style="rounded=1;whiteSpace=wrap;html=1;verticalAlign=top;" vertex="1" parent="1">
          <mxGeometry x="751" y="340" width="140" height="60" as="geometry" />
        </mxCell>
        <mxCell id="DR8zXilW78BF2vZYN9CU-102" value="0" style="rounded=0;whiteSpace=wrap;html=1;" vertex="1" parent="1">
          <mxGeometry x="761" y="360" width="30" height="30" as="geometry" />
        </mxCell>
        <mxCell id="DR8zXilW78BF2vZYN9CU-103" value="1" style="rounded=0;whiteSpace=wrap;html=1;" vertex="1" parent="1">
          <mxGeometry x="791" y="360" width="30" height="30" as="geometry" />
        </mxCell>
        <mxCell id="DR8zXilW78BF2vZYN9CU-104" value="2" style="rounded=0;whiteSpace=wrap;html=1;" vertex="1" parent="1">
          <mxGeometry x="821" y="360" width="30" height="30" as="geometry" />
        </mxCell>
        <mxCell id="DR8zXilW78BF2vZYN9CU-105" value="3" style="rounded=0;whiteSpace=wrap;html=1;" vertex="1" parent="1">
          <mxGeometry x="851" y="360" width="30" height="30" as="geometry" />
        </mxCell>
        <mxCell id="DR8zXilW78BF2vZYN9CU-107" value="0" style="rounded=0;whiteSpace=wrap;html=1;" vertex="1" parent="1">
          <mxGeometry x="906" y="360" width="30" height="30" as="geometry" />
        </mxCell>
        <mxCell id="DR8zXilW78BF2vZYN9CU-108" value="1" style="rounded=0;whiteSpace=wrap;html=1;" vertex="1" parent="1">
          <mxGeometry x="936" y="360" width="30" height="30" as="geometry" />
        </mxCell>
        <mxCell id="DR8zXilW78BF2vZYN9CU-109" value="2" style="rounded=0;whiteSpace=wrap;html=1;" vertex="1" parent="1">
          <mxGeometry x="966" y="360" width="30" height="30" as="geometry" />
        </mxCell>
        <mxCell id="DR8zXilW78BF2vZYN9CU-110" value="3" style="rounded=0;whiteSpace=wrap;html=1;" vertex="1" parent="1">
          <mxGeometry x="996" y="360" width="30" height="30" as="geometry" />
        </mxCell>
        <mxCell id="DR8zXilW78BF2vZYN9CU-111" value="" style="endArrow=classic;html=1;rounded=0;entryX=0.5;entryY=0;entryDx=0;entryDy=0;exitX=0.5;exitY=1;exitDx=0;exitDy=0;" edge="1" parent="1" source="DR8zXilW78BF2vZYN9CU-102" target="DR8zXilW78BF2vZYN9CU-86">
          <mxGeometry width="50" height="50" relative="1" as="geometry">
            <mxPoint x="735" y="220" as="sourcePoint" />
            <mxPoint x="825" y="280" as="targetPoint" />
          </mxGeometry>
        </mxCell>
        <mxCell id="DR8zXilW78BF2vZYN9CU-112" value="" style="endArrow=classic;html=1;rounded=0;entryX=0.5;entryY=0;entryDx=0;entryDy=0;exitX=0.5;exitY=1;exitDx=0;exitDy=0;" edge="1" parent="1" source="DR8zXilW78BF2vZYN9CU-103" target="DR8zXilW78BF2vZYN9CU-94">
          <mxGeometry width="50" height="50" relative="1" as="geometry">
            <mxPoint x="745" y="400" as="sourcePoint" />
            <mxPoint x="799" y="440" as="targetPoint" />
          </mxGeometry>
        </mxCell>
        <mxCell id="DR8zXilW78BF2vZYN9CU-113" value="" style="endArrow=classic;html=1;rounded=0;entryX=0.5;entryY=0;entryDx=0;entryDy=0;exitX=0.5;exitY=1;exitDx=0;exitDy=0;" edge="1" parent="1" source="DR8zXilW78BF2vZYN9CU-104" target="DR8zXilW78BF2vZYN9CU-98">
          <mxGeometry width="50" height="50" relative="1" as="geometry">
            <mxPoint x="755" y="410" as="sourcePoint" />
            <mxPoint x="809" y="450" as="targetPoint" />
          </mxGeometry>
        </mxCell>
        <mxCell id="DR8zXilW78BF2vZYN9CU-114" value="" style="endArrow=classic;html=1;rounded=0;entryX=0.5;entryY=0;entryDx=0;entryDy=0;exitX=0.5;exitY=1;exitDx=0;exitDy=0;" edge="1" parent="1" source="DR8zXilW78BF2vZYN9CU-105" target="DR8zXilW78BF2vZYN9CU-90">
          <mxGeometry width="50" height="50" relative="1" as="geometry">
            <mxPoint x="765" y="420" as="sourcePoint" />
            <mxPoint x="819" y="460" as="targetPoint" />
          </mxGeometry>
        </mxCell>
        <mxCell id="DR8zXilW78BF2vZYN9CU-118" value="" style="endArrow=classic;html=1;rounded=0;entryX=1;entryY=0.75;entryDx=0;entryDy=0;exitX=1;exitY=0.5;exitDx=0;exitDy=0;" edge="1" parent="1" source="DR8zXilW78BF2vZYN9CU-120" target="DR8zXilW78BF2vZYN9CU-88">
          <mxGeometry width="50" height="50" relative="1" as="geometry">
            <mxPoint x="680" y="440" as="sourcePoint" />
            <mxPoint x="799" y="440" as="targetPoint" />
          </mxGeometry>
        </mxCell>
        <mxCell id="DR8zXilW78BF2vZYN9CU-119" value="" style="endArrow=classic;html=1;rounded=0;entryX=1;entryY=0.75;entryDx=0;entryDy=0;exitX=1;exitY=0.5;exitDx=0;exitDy=0;" edge="1" parent="1" source="DR8zXilW78BF2vZYN9CU-121" target="DR8zXilW78BF2vZYN9CU-96">
          <mxGeometry width="50" height="50" relative="1" as="geometry">
            <mxPoint x="730" y="440" as="sourcePoint" />
            <mxPoint x="790" y="458" as="targetPoint" />
          </mxGeometry>
        </mxCell>
        <mxCell id="DR8zXilW78BF2vZYN9CU-120" value="+" style="rounded=0;whiteSpace=wrap;html=1;" vertex="1" parent="1">
          <mxGeometry x="625" y="390" width="90" height="30" as="geometry" />
        </mxCell>
        <mxCell id="DR8zXilW78BF2vZYN9CU-121" value="-" style="rounded=0;whiteSpace=wrap;html=1;" vertex="1" parent="1">
          <mxGeometry x="625" y="420" width="90" height="30" as="geometry" />
        </mxCell>
        <mxCell id="DR8zXilW78BF2vZYN9CU-122" value="x" style="rounded=0;whiteSpace=wrap;html=1;" vertex="1" parent="1">
          <mxGeometry x="625" y="450" width="90" height="30" as="geometry" />
        </mxCell>
        <mxCell id="DR8zXilW78BF2vZYN9CU-123" value="/" style="rounded=0;whiteSpace=wrap;html=1;" vertex="1" parent="1">
          <mxGeometry x="625" y="480" width="90" height="30" as="geometry" />
        </mxCell>
        <mxCell id="DR8zXilW78BF2vZYN9CU-126" value="" style="endArrow=classic;html=1;rounded=0;entryX=1;entryY=0.75;entryDx=0;entryDy=0;exitX=1;exitY=0.6;exitDx=0;exitDy=0;exitPerimeter=0;" edge="1" parent="1" source="DR8zXilW78BF2vZYN9CU-122" target="DR8zXilW78BF2vZYN9CU-100">
          <mxGeometry width="50" height="50" relative="1" as="geometry">
            <mxPoint x="690" y="455" as="sourcePoint" />
            <mxPoint x="850" y="458" as="targetPoint" />
          </mxGeometry>
        </mxCell>
        <mxCell id="DR8zXilW78BF2vZYN9CU-127" value="" style="endArrow=classic;html=1;rounded=0;entryX=1;entryY=0.75;entryDx=0;entryDy=0;exitX=1;exitY=0.5;exitDx=0;exitDy=0;" edge="1" parent="1" source="DR8zXilW78BF2vZYN9CU-123" target="DR8zXilW78BF2vZYN9CU-92">
          <mxGeometry width="50" height="50" relative="1" as="geometry">
            <mxPoint x="700" y="465" as="sourcePoint" />
            <mxPoint x="860" y="468" as="targetPoint" />
          </mxGeometry>
        </mxCell>
        <mxCell id="DR8zXilW78BF2vZYN9CU-132" value="" style="endArrow=classic;html=1;rounded=0;exitX=0.5;exitY=1;exitDx=0;exitDy=0;entryX=0.5;entryY=0;entryDx=0;entryDy=0;" edge="1" parent="1" source="DR8zXilW78BF2vZYN9CU-107" target="DR8zXilW78BF2vZYN9CU-87">
          <mxGeometry width="50" height="50" relative="1" as="geometry">
            <mxPoint x="780" y="430" as="sourcePoint" />
            <mxPoint x="830" y="380" as="targetPoint" />
          </mxGeometry>
        </mxCell>
        <mxCell id="DR8zXilW78BF2vZYN9CU-133" value="" style="endArrow=classic;html=1;rounded=0;exitX=0.5;exitY=1;exitDx=0;exitDy=0;entryX=0.5;entryY=0;entryDx=0;entryDy=0;" edge="1" parent="1" source="DR8zXilW78BF2vZYN9CU-108" target="DR8zXilW78BF2vZYN9CU-95">
          <mxGeometry width="50" height="50" relative="1" as="geometry">
            <mxPoint x="890" y="400" as="sourcePoint" />
            <mxPoint x="831" y="440" as="targetPoint" />
          </mxGeometry>
        </mxCell>
        <mxCell id="DR8zXilW78BF2vZYN9CU-135" value="" style="endArrow=classic;html=1;rounded=0;exitX=0.5;exitY=1;exitDx=0;exitDy=0;entryX=0.5;entryY=0;entryDx=0;entryDy=0;" edge="1" parent="1" source="DR8zXilW78BF2vZYN9CU-109" target="DR8zXilW78BF2vZYN9CU-99">
          <mxGeometry width="50" height="50" relative="1" as="geometry">
            <mxPoint x="1000" y="390" as="sourcePoint" />
            <mxPoint x="841" y="450" as="targetPoint" />
          </mxGeometry>
        </mxCell>
        <mxCell id="DR8zXilW78BF2vZYN9CU-136" value="" style="endArrow=classic;html=1;rounded=0;exitX=0.5;exitY=1;exitDx=0;exitDy=0;entryX=0.5;entryY=0;entryDx=0;entryDy=0;" edge="1" parent="1" source="DR8zXilW78BF2vZYN9CU-110" target="DR8zXilW78BF2vZYN9CU-91">
          <mxGeometry width="50" height="50" relative="1" as="geometry">
            <mxPoint x="1060" y="390" as="sourcePoint" />
            <mxPoint x="951" y="440" as="targetPoint" />
          </mxGeometry>
        </mxCell>
        <mxCell id="DR8zXilW78BF2vZYN9CU-137" value="Instructions" style="rounded=1;whiteSpace=wrap;html=1;verticalAlign=top;" vertex="1" parent="1">
          <mxGeometry x="-112" y="530" width="120" height="60" as="geometry" />
        </mxCell>
        <mxCell id="DR8zXilW78BF2vZYN9CU-138" value="" style="group" vertex="1" connectable="0" parent="1">
          <mxGeometry x="40" y="550" width="50" height="40" as="geometry" />
        </mxCell>
        <mxCell id="DR8zXilW78BF2vZYN9CU-139" value="" style="rounded=0;whiteSpace=wrap;html=1;" vertex="1" parent="DR8zXilW78BF2vZYN9CU-138">
          <mxGeometry width="17.5" height="18.674285714285713" as="geometry" />
        </mxCell>
        <mxCell id="DR8zXilW78BF2vZYN9CU-140" value="" style="rounded=0;whiteSpace=wrap;html=1;" vertex="1" parent="DR8zXilW78BF2vZYN9CU-138">
          <mxGeometry x="32.5" width="17.5" height="18.674285714285713" as="geometry" />
        </mxCell>
        <mxCell id="DR8zXilW78BF2vZYN9CU-141" value="" style="shape=loopLimit;whiteSpace=wrap;html=1;rotation=-180;size=22;" vertex="1" parent="DR8zXilW78BF2vZYN9CU-138">
          <mxGeometry y="10.731707317073173" width="50" height="29.26829268292683" as="geometry" />
        </mxCell>
        <mxCell id="DR8zXilW78BF2vZYN9CU-142" value="" style="group" vertex="1" connectable="0" parent="1">
          <mxGeometry x="220" y="550" width="50" height="40" as="geometry" />
        </mxCell>
        <mxCell id="DR8zXilW78BF2vZYN9CU-143" value="" style="rounded=0;whiteSpace=wrap;html=1;" vertex="1" parent="DR8zXilW78BF2vZYN9CU-142">
          <mxGeometry width="17.5" height="18.674285714285713" as="geometry" />
        </mxCell>
        <mxCell id="DR8zXilW78BF2vZYN9CU-144" value="" style="rounded=0;whiteSpace=wrap;html=1;" vertex="1" parent="DR8zXilW78BF2vZYN9CU-142">
          <mxGeometry x="32.5" width="17.5" height="18.674285714285713" as="geometry" />
        </mxCell>
        <mxCell id="DR8zXilW78BF2vZYN9CU-145" value="" style="shape=loopLimit;whiteSpace=wrap;html=1;rotation=-180;size=22;" vertex="1" parent="DR8zXilW78BF2vZYN9CU-142">
          <mxGeometry y="10.731707317073173" width="50" height="29.26829268292683" as="geometry" />
        </mxCell>
        <mxCell id="DR8zXilW78BF2vZYN9CU-146" value="" style="group" vertex="1" connectable="0" parent="1">
          <mxGeometry x="100" y="550" width="50" height="40" as="geometry" />
        </mxCell>
        <mxCell id="DR8zXilW78BF2vZYN9CU-147" value="" style="rounded=0;whiteSpace=wrap;html=1;" vertex="1" parent="DR8zXilW78BF2vZYN9CU-146">
          <mxGeometry width="17.5" height="18.674285714285713" as="geometry" />
        </mxCell>
        <mxCell id="DR8zXilW78BF2vZYN9CU-148" value="" style="rounded=0;whiteSpace=wrap;html=1;" vertex="1" parent="DR8zXilW78BF2vZYN9CU-146">
          <mxGeometry x="32.5" width="17.5" height="18.674285714285713" as="geometry" />
        </mxCell>
        <mxCell id="DR8zXilW78BF2vZYN9CU-149" value="" style="shape=loopLimit;whiteSpace=wrap;html=1;rotation=-180;size=22;" vertex="1" parent="DR8zXilW78BF2vZYN9CU-146">
          <mxGeometry y="10.731707317073173" width="50" height="29.26829268292683" as="geometry" />
        </mxCell>
        <mxCell id="DR8zXilW78BF2vZYN9CU-150" value="" style="group" vertex="1" connectable="0" parent="1">
          <mxGeometry x="160" y="550" width="50" height="40" as="geometry" />
        </mxCell>
        <mxCell id="DR8zXilW78BF2vZYN9CU-151" value="" style="rounded=0;whiteSpace=wrap;html=1;" vertex="1" parent="DR8zXilW78BF2vZYN9CU-150">
          <mxGeometry width="17.5" height="18.674285714285713" as="geometry" />
        </mxCell>
        <mxCell id="DR8zXilW78BF2vZYN9CU-152" value="" style="rounded=0;whiteSpace=wrap;html=1;" vertex="1" parent="DR8zXilW78BF2vZYN9CU-150">
          <mxGeometry x="32.5" width="17.5" height="18.674285714285713" as="geometry" />
        </mxCell>
        <mxCell id="DR8zXilW78BF2vZYN9CU-153" value="" style="shape=loopLimit;whiteSpace=wrap;html=1;rotation=-180;size=22;" vertex="1" parent="DR8zXilW78BF2vZYN9CU-150">
          <mxGeometry y="10.731707317073173" width="50" height="29.26829268292683" as="geometry" />
        </mxCell>
        <mxCell id="DR8zXilW78BF2vZYN9CU-154" value="Data" style="rounded=1;whiteSpace=wrap;html=1;verticalAlign=top;" vertex="1" parent="1">
          <mxGeometry x="8" y="460" width="140" height="60" as="geometry" />
        </mxCell>
        <mxCell id="DR8zXilW78BF2vZYN9CU-155" value="0" style="rounded=0;whiteSpace=wrap;html=1;" vertex="1" parent="1">
          <mxGeometry x="18" y="480" width="30" height="30" as="geometry" />
        </mxCell>
        <mxCell id="DR8zXilW78BF2vZYN9CU-156" value="1" style="rounded=0;whiteSpace=wrap;html=1;" vertex="1" parent="1">
          <mxGeometry x="48" y="480" width="30" height="30" as="geometry" />
        </mxCell>
        <mxCell id="DR8zXilW78BF2vZYN9CU-157" value="2" style="rounded=0;whiteSpace=wrap;html=1;" vertex="1" parent="1">
          <mxGeometry x="78" y="480" width="30" height="30" as="geometry" />
        </mxCell>
        <mxCell id="DR8zXilW78BF2vZYN9CU-158" value="3" style="rounded=0;whiteSpace=wrap;html=1;" vertex="1" parent="1">
          <mxGeometry x="108" y="480" width="30" height="30" as="geometry" />
        </mxCell>
        <mxCell id="DR8zXilW78BF2vZYN9CU-160" value="0" style="rounded=0;whiteSpace=wrap;html=1;" vertex="1" parent="1">
          <mxGeometry x="167.5" y="480" width="30" height="30" as="geometry" />
        </mxCell>
        <mxCell id="DR8zXilW78BF2vZYN9CU-161" value="1" style="rounded=0;whiteSpace=wrap;html=1;" vertex="1" parent="1">
          <mxGeometry x="197.5" y="480" width="30" height="30" as="geometry" />
        </mxCell>
        <mxCell id="DR8zXilW78BF2vZYN9CU-162" value="2" style="rounded=0;whiteSpace=wrap;html=1;" vertex="1" parent="1">
          <mxGeometry x="227.5" y="480" width="30" height="30" as="geometry" />
        </mxCell>
        <mxCell id="DR8zXilW78BF2vZYN9CU-163" value="3" style="rounded=0;whiteSpace=wrap;html=1;" vertex="1" parent="1">
          <mxGeometry x="257.5" y="480" width="30" height="30" as="geometry" />
        </mxCell>
        <mxCell id="DR8zXilW78BF2vZYN9CU-164" value="" style="endArrow=classic;html=1;rounded=0;entryX=0.5;entryY=0;entryDx=0;entryDy=0;exitX=0.5;exitY=1;exitDx=0;exitDy=0;" edge="1" parent="1" source="DR8zXilW78BF2vZYN9CU-155" target="DR8zXilW78BF2vZYN9CU-139">
          <mxGeometry width="50" height="50" relative="1" as="geometry">
            <mxPoint x="-5" y="340" as="sourcePoint" />
            <mxPoint x="85" y="400" as="targetPoint" />
          </mxGeometry>
        </mxCell>
        <mxCell id="DR8zXilW78BF2vZYN9CU-165" value="" style="endArrow=classic;html=1;rounded=0;entryX=0.5;entryY=0;entryDx=0;entryDy=0;exitX=0.5;exitY=1;exitDx=0;exitDy=0;" edge="1" parent="1" source="DR8zXilW78BF2vZYN9CU-156" target="DR8zXilW78BF2vZYN9CU-147">
          <mxGeometry width="50" height="50" relative="1" as="geometry">
            <mxPoint x="5" y="520" as="sourcePoint" />
            <mxPoint x="59" y="560" as="targetPoint" />
          </mxGeometry>
        </mxCell>
        <mxCell id="DR8zXilW78BF2vZYN9CU-166" value="" style="endArrow=classic;html=1;rounded=0;entryX=0.5;entryY=0;entryDx=0;entryDy=0;exitX=0.5;exitY=1;exitDx=0;exitDy=0;" edge="1" parent="1" source="DR8zXilW78BF2vZYN9CU-157" target="DR8zXilW78BF2vZYN9CU-151">
          <mxGeometry width="50" height="50" relative="1" as="geometry">
            <mxPoint x="15" y="530" as="sourcePoint" />
            <mxPoint x="69" y="570" as="targetPoint" />
          </mxGeometry>
        </mxCell>
        <mxCell id="DR8zXilW78BF2vZYN9CU-167" value="" style="endArrow=classic;html=1;rounded=0;entryX=0.5;entryY=0;entryDx=0;entryDy=0;exitX=0.5;exitY=1;exitDx=0;exitDy=0;" edge="1" parent="1" source="DR8zXilW78BF2vZYN9CU-158" target="DR8zXilW78BF2vZYN9CU-143">
          <mxGeometry width="50" height="50" relative="1" as="geometry">
            <mxPoint x="25" y="540" as="sourcePoint" />
            <mxPoint x="79" y="580" as="targetPoint" />
          </mxGeometry>
        </mxCell>
        <mxCell id="DR8zXilW78BF2vZYN9CU-168" value="" style="endArrow=classic;html=1;rounded=0;entryX=1;entryY=0.75;entryDx=0;entryDy=0;exitX=1;exitY=0.5;exitDx=0;exitDy=0;" edge="1" parent="1" source="DR8zXilW78BF2vZYN9CU-170" target="DR8zXilW78BF2vZYN9CU-141">
          <mxGeometry width="50" height="50" relative="1" as="geometry">
            <mxPoint x="-60" y="560" as="sourcePoint" />
            <mxPoint x="59" y="560" as="targetPoint" />
          </mxGeometry>
        </mxCell>
        <mxCell id="DR8zXilW78BF2vZYN9CU-169" value="" style="endArrow=classic;html=1;rounded=0;entryX=1;entryY=0.75;entryDx=0;entryDy=0;exitX=1;exitY=0.5;exitDx=0;exitDy=0;" edge="1" parent="1" source="DR8zXilW78BF2vZYN9CU-170" target="DR8zXilW78BF2vZYN9CU-149">
          <mxGeometry width="50" height="50" relative="1" as="geometry">
            <mxPoint x="-10" y="560" as="sourcePoint" />
            <mxPoint x="50" y="578" as="targetPoint" />
          </mxGeometry>
        </mxCell>
        <mxCell id="DR8zXilW78BF2vZYN9CU-170" value="+" style="rounded=0;whiteSpace=wrap;html=1;" vertex="1" parent="1">
          <mxGeometry x="-97" y="550" width="90" height="30" as="geometry" />
        </mxCell>
        <mxCell id="DR8zXilW78BF2vZYN9CU-174" value="" style="endArrow=classic;html=1;rounded=0;entryX=1;entryY=0.75;entryDx=0;entryDy=0;exitX=1;exitY=0.5;exitDx=0;exitDy=0;" edge="1" parent="1" source="DR8zXilW78BF2vZYN9CU-170" target="DR8zXilW78BF2vZYN9CU-153">
          <mxGeometry width="50" height="50" relative="1" as="geometry">
            <mxPoint x="-50" y="575" as="sourcePoint" />
            <mxPoint x="110" y="578" as="targetPoint" />
          </mxGeometry>
        </mxCell>
        <mxCell id="DR8zXilW78BF2vZYN9CU-175" value="" style="endArrow=classic;html=1;rounded=0;entryX=1;entryY=0.75;entryDx=0;entryDy=0;exitX=1;exitY=0.5;exitDx=0;exitDy=0;" edge="1" parent="1" source="DR8zXilW78BF2vZYN9CU-170" target="DR8zXilW78BF2vZYN9CU-145">
          <mxGeometry width="50" height="50" relative="1" as="geometry">
            <mxPoint x="-40" y="585" as="sourcePoint" />
            <mxPoint x="120" y="588" as="targetPoint" />
          </mxGeometry>
        </mxCell>
        <mxCell id="DR8zXilW78BF2vZYN9CU-180" value="" style="endArrow=classic;html=1;rounded=0;exitX=0.5;exitY=1;exitDx=0;exitDy=0;entryX=0.5;entryY=0;entryDx=0;entryDy=0;" edge="1" parent="1" source="DR8zXilW78BF2vZYN9CU-160" target="DR8zXilW78BF2vZYN9CU-140">
          <mxGeometry width="50" height="50" relative="1" as="geometry">
            <mxPoint x="40" y="550" as="sourcePoint" />
            <mxPoint x="90" y="500" as="targetPoint" />
          </mxGeometry>
        </mxCell>
        <mxCell id="DR8zXilW78BF2vZYN9CU-181" value="" style="endArrow=classic;html=1;rounded=0;exitX=0.5;exitY=1;exitDx=0;exitDy=0;entryX=0.5;entryY=0;entryDx=0;entryDy=0;" edge="1" parent="1" source="DR8zXilW78BF2vZYN9CU-161" target="DR8zXilW78BF2vZYN9CU-148">
          <mxGeometry width="50" height="50" relative="1" as="geometry">
            <mxPoint x="150" y="520" as="sourcePoint" />
            <mxPoint x="91" y="560" as="targetPoint" />
          </mxGeometry>
        </mxCell>
        <mxCell id="DR8zXilW78BF2vZYN9CU-182" value="" style="endArrow=classic;html=1;rounded=0;exitX=0.5;exitY=1;exitDx=0;exitDy=0;entryX=0.5;entryY=0;entryDx=0;entryDy=0;" edge="1" parent="1" source="DR8zXilW78BF2vZYN9CU-162" target="DR8zXilW78BF2vZYN9CU-152">
          <mxGeometry width="50" height="50" relative="1" as="geometry">
            <mxPoint x="160" y="530" as="sourcePoint" />
            <mxPoint x="101" y="570" as="targetPoint" />
          </mxGeometry>
        </mxCell>
        <mxCell id="DR8zXilW78BF2vZYN9CU-183" value="" style="endArrow=classic;html=1;rounded=0;exitX=0.5;exitY=1;exitDx=0;exitDy=0;entryX=0.5;entryY=0;entryDx=0;entryDy=0;" edge="1" parent="1" source="DR8zXilW78BF2vZYN9CU-163" target="DR8zXilW78BF2vZYN9CU-144">
          <mxGeometry width="50" height="50" relative="1" as="geometry">
            <mxPoint x="270" y="520" as="sourcePoint" />
            <mxPoint x="211" y="560" as="targetPoint" />
          </mxGeometry>
        </mxCell>
        <mxCell id="DR8zXilW78BF2vZYN9CU-186" value="Data" style="rounded=1;whiteSpace=wrap;html=1;verticalAlign=top;" vertex="1" parent="1">
          <mxGeometry x="1206" y="35" width="140" height="60" as="geometry" />
        </mxCell>
        <mxCell id="DR8zXilW78BF2vZYN9CU-187" value="Instructions" style="rounded=1;whiteSpace=wrap;html=1;verticalAlign=top;" vertex="1" parent="1">
          <mxGeometry x="920" y="45" width="120" height="190" as="geometry" />
        </mxCell>
        <mxCell id="DR8zXilW78BF2vZYN9CU-188" value="" style="group" vertex="1" connectable="0" parent="1">
          <mxGeometry x="1090" y="125" width="50" height="40" as="geometry" />
        </mxCell>
        <mxCell id="DR8zXilW78BF2vZYN9CU-189" value="" style="rounded=0;whiteSpace=wrap;html=1;" vertex="1" parent="DR8zXilW78BF2vZYN9CU-188">
          <mxGeometry width="17.5" height="18.674285714285713" as="geometry" />
        </mxCell>
        <mxCell id="DR8zXilW78BF2vZYN9CU-190" value="" style="rounded=0;whiteSpace=wrap;html=1;" vertex="1" parent="DR8zXilW78BF2vZYN9CU-188">
          <mxGeometry x="32.5" width="17.5" height="18.674285714285713" as="geometry" />
        </mxCell>
        <mxCell id="DR8zXilW78BF2vZYN9CU-191" value="" style="shape=loopLimit;whiteSpace=wrap;html=1;rotation=-180;size=22;" vertex="1" parent="DR8zXilW78BF2vZYN9CU-188">
          <mxGeometry y="10.731707317073173" width="50" height="29.26829268292683" as="geometry" />
        </mxCell>
        <mxCell id="DR8zXilW78BF2vZYN9CU-192" value="" style="group" vertex="1" connectable="0" parent="1">
          <mxGeometry x="1270" y="125" width="50" height="40" as="geometry" />
        </mxCell>
        <mxCell id="DR8zXilW78BF2vZYN9CU-193" value="" style="rounded=0;whiteSpace=wrap;html=1;" vertex="1" parent="DR8zXilW78BF2vZYN9CU-192">
          <mxGeometry width="17.5" height="18.674285714285713" as="geometry" />
        </mxCell>
        <mxCell id="DR8zXilW78BF2vZYN9CU-194" value="" style="rounded=0;whiteSpace=wrap;html=1;" vertex="1" parent="DR8zXilW78BF2vZYN9CU-192">
          <mxGeometry x="32.5" width="17.5" height="18.674285714285713" as="geometry" />
        </mxCell>
        <mxCell id="DR8zXilW78BF2vZYN9CU-195" value="" style="shape=loopLimit;whiteSpace=wrap;html=1;rotation=-180;size=22;" vertex="1" parent="DR8zXilW78BF2vZYN9CU-192">
          <mxGeometry y="10.731707317073173" width="50" height="29.26829268292683" as="geometry" />
        </mxCell>
        <mxCell id="DR8zXilW78BF2vZYN9CU-196" value="" style="group" vertex="1" connectable="0" parent="1">
          <mxGeometry x="1150" y="125" width="50" height="40" as="geometry" />
        </mxCell>
        <mxCell id="DR8zXilW78BF2vZYN9CU-197" value="" style="rounded=0;whiteSpace=wrap;html=1;" vertex="1" parent="DR8zXilW78BF2vZYN9CU-196">
          <mxGeometry width="17.5" height="18.674285714285713" as="geometry" />
        </mxCell>
        <mxCell id="DR8zXilW78BF2vZYN9CU-198" value="" style="rounded=0;whiteSpace=wrap;html=1;" vertex="1" parent="DR8zXilW78BF2vZYN9CU-196">
          <mxGeometry x="32.5" width="17.5" height="18.674285714285713" as="geometry" />
        </mxCell>
        <mxCell id="DR8zXilW78BF2vZYN9CU-199" value="" style="shape=loopLimit;whiteSpace=wrap;html=1;rotation=-180;size=22;" vertex="1" parent="DR8zXilW78BF2vZYN9CU-196">
          <mxGeometry y="10.731707317073173" width="50" height="29.26829268292683" as="geometry" />
        </mxCell>
        <mxCell id="DR8zXilW78BF2vZYN9CU-200" value="" style="group" vertex="1" connectable="0" parent="1">
          <mxGeometry x="1210" y="125" width="50" height="40" as="geometry" />
        </mxCell>
        <mxCell id="DR8zXilW78BF2vZYN9CU-201" value="" style="rounded=0;whiteSpace=wrap;html=1;" vertex="1" parent="DR8zXilW78BF2vZYN9CU-200">
          <mxGeometry width="17.5" height="18.674285714285713" as="geometry" />
        </mxCell>
        <mxCell id="DR8zXilW78BF2vZYN9CU-202" value="" style="rounded=0;whiteSpace=wrap;html=1;" vertex="1" parent="DR8zXilW78BF2vZYN9CU-200">
          <mxGeometry x="32.5" width="17.5" height="18.674285714285713" as="geometry" />
        </mxCell>
        <mxCell id="DR8zXilW78BF2vZYN9CU-203" value="" style="shape=loopLimit;whiteSpace=wrap;html=1;rotation=-180;size=22;" vertex="1" parent="DR8zXilW78BF2vZYN9CU-200">
          <mxGeometry y="10.731707317073173" width="50" height="29.26829268292683" as="geometry" />
        </mxCell>
        <mxCell id="DR8zXilW78BF2vZYN9CU-204" value="Data" style="rounded=1;whiteSpace=wrap;html=1;verticalAlign=top;" vertex="1" parent="1">
          <mxGeometry x="1061" y="35" width="140" height="60" as="geometry" />
        </mxCell>
        <mxCell id="DR8zXilW78BF2vZYN9CU-205" value="0" style="rounded=0;whiteSpace=wrap;html=1;" vertex="1" parent="1">
          <mxGeometry x="1071" y="55" width="30" height="30" as="geometry" />
        </mxCell>
        <mxCell id="DR8zXilW78BF2vZYN9CU-206" value="1" style="rounded=0;whiteSpace=wrap;html=1;" vertex="1" parent="1">
          <mxGeometry x="1101" y="55" width="30" height="30" as="geometry" />
        </mxCell>
        <mxCell id="DR8zXilW78BF2vZYN9CU-207" value="2" style="rounded=0;whiteSpace=wrap;html=1;" vertex="1" parent="1">
          <mxGeometry x="1131" y="55" width="30" height="30" as="geometry" />
        </mxCell>
        <mxCell id="DR8zXilW78BF2vZYN9CU-208" value="3" style="rounded=0;whiteSpace=wrap;html=1;" vertex="1" parent="1">
          <mxGeometry x="1161" y="55" width="30" height="30" as="geometry" />
        </mxCell>
        <mxCell id="DR8zXilW78BF2vZYN9CU-209" value="0" style="rounded=0;whiteSpace=wrap;html=1;" vertex="1" parent="1">
          <mxGeometry x="1216" y="55" width="30" height="30" as="geometry" />
        </mxCell>
        <mxCell id="DR8zXilW78BF2vZYN9CU-210" value="1" style="rounded=0;whiteSpace=wrap;html=1;" vertex="1" parent="1">
          <mxGeometry x="1246" y="55" width="30" height="30" as="geometry" />
        </mxCell>
        <mxCell id="DR8zXilW78BF2vZYN9CU-211" value="2" style="rounded=0;whiteSpace=wrap;html=1;" vertex="1" parent="1">
          <mxGeometry x="1276" y="55" width="30" height="30" as="geometry" />
        </mxCell>
        <mxCell id="DR8zXilW78BF2vZYN9CU-212" value="3" style="rounded=0;whiteSpace=wrap;html=1;" vertex="1" parent="1">
          <mxGeometry x="1306" y="55" width="30" height="30" as="geometry" />
        </mxCell>
        <mxCell id="DR8zXilW78BF2vZYN9CU-213" value="" style="endArrow=classic;html=1;rounded=0;entryX=0.5;entryY=0;entryDx=0;entryDy=0;exitX=0.5;exitY=1;exitDx=0;exitDy=0;" edge="1" parent="1" source="DR8zXilW78BF2vZYN9CU-205" target="DR8zXilW78BF2vZYN9CU-189">
          <mxGeometry width="50" height="50" relative="1" as="geometry">
            <mxPoint x="1045" y="-85" as="sourcePoint" />
            <mxPoint x="1135" y="-25" as="targetPoint" />
          </mxGeometry>
        </mxCell>
        <mxCell id="DR8zXilW78BF2vZYN9CU-214" value="" style="endArrow=classic;html=1;rounded=0;entryX=0.5;entryY=0;entryDx=0;entryDy=0;exitX=0.5;exitY=1;exitDx=0;exitDy=0;" edge="1" parent="1" source="DR8zXilW78BF2vZYN9CU-205" target="DR8zXilW78BF2vZYN9CU-197">
          <mxGeometry width="50" height="50" relative="1" as="geometry">
            <mxPoint x="1090" y="90" as="sourcePoint" />
            <mxPoint x="1109" y="135" as="targetPoint" />
          </mxGeometry>
        </mxCell>
        <mxCell id="DR8zXilW78BF2vZYN9CU-215" value="" style="endArrow=classic;html=1;rounded=0;entryX=0.5;entryY=0;entryDx=0;entryDy=0;exitX=0.5;exitY=1;exitDx=0;exitDy=0;" edge="1" parent="1" source="DR8zXilW78BF2vZYN9CU-205" target="DR8zXilW78BF2vZYN9CU-201">
          <mxGeometry width="50" height="50" relative="1" as="geometry">
            <mxPoint x="1065" y="105" as="sourcePoint" />
            <mxPoint x="1119" y="145" as="targetPoint" />
          </mxGeometry>
        </mxCell>
        <mxCell id="DR8zXilW78BF2vZYN9CU-216" value="" style="endArrow=classic;html=1;rounded=0;entryX=0.5;entryY=0;entryDx=0;entryDy=0;exitX=0.5;exitY=1;exitDx=0;exitDy=0;" edge="1" parent="1" source="DR8zXilW78BF2vZYN9CU-205" target="DR8zXilW78BF2vZYN9CU-193">
          <mxGeometry width="50" height="50" relative="1" as="geometry">
            <mxPoint x="1075" y="115" as="sourcePoint" />
            <mxPoint x="1129" y="155" as="targetPoint" />
          </mxGeometry>
        </mxCell>
        <mxCell id="DR8zXilW78BF2vZYN9CU-217" value="" style="endArrow=classic;html=1;rounded=0;entryX=1;entryY=0.75;entryDx=0;entryDy=0;exitX=1;exitY=0.5;exitDx=0;exitDy=0;" edge="1" parent="1" source="DR8zXilW78BF2vZYN9CU-219" target="DR8zXilW78BF2vZYN9CU-191">
          <mxGeometry width="50" height="50" relative="1" as="geometry">
            <mxPoint x="990" y="135" as="sourcePoint" />
            <mxPoint x="1109" y="135" as="targetPoint" />
          </mxGeometry>
        </mxCell>
        <mxCell id="DR8zXilW78BF2vZYN9CU-218" value="" style="endArrow=classic;html=1;rounded=0;entryX=1;entryY=0.75;entryDx=0;entryDy=0;exitX=1;exitY=0.5;exitDx=0;exitDy=0;" edge="1" parent="1" source="DR8zXilW78BF2vZYN9CU-220" target="DR8zXilW78BF2vZYN9CU-199">
          <mxGeometry width="50" height="50" relative="1" as="geometry">
            <mxPoint x="1040" y="135" as="sourcePoint" />
            <mxPoint x="1100" y="153" as="targetPoint" />
          </mxGeometry>
        </mxCell>
        <mxCell id="DR8zXilW78BF2vZYN9CU-219" value="+" style="rounded=0;whiteSpace=wrap;html=1;" vertex="1" parent="1">
          <mxGeometry x="935" y="85" width="90" height="30" as="geometry" />
        </mxCell>
        <mxCell id="DR8zXilW78BF2vZYN9CU-220" value="-" style="rounded=0;whiteSpace=wrap;html=1;" vertex="1" parent="1">
          <mxGeometry x="935" y="115" width="90" height="30" as="geometry" />
        </mxCell>
        <mxCell id="DR8zXilW78BF2vZYN9CU-221" value="x" style="rounded=0;whiteSpace=wrap;html=1;" vertex="1" parent="1">
          <mxGeometry x="935" y="145" width="90" height="30" as="geometry" />
        </mxCell>
        <mxCell id="DR8zXilW78BF2vZYN9CU-222" value="/" style="rounded=0;whiteSpace=wrap;html=1;" vertex="1" parent="1">
          <mxGeometry x="935" y="175" width="90" height="30" as="geometry" />
        </mxCell>
        <mxCell id="DR8zXilW78BF2vZYN9CU-223" value="" style="endArrow=classic;html=1;rounded=0;entryX=1;entryY=0.75;entryDx=0;entryDy=0;exitX=1;exitY=0.6;exitDx=0;exitDy=0;exitPerimeter=0;" edge="1" parent="1" source="DR8zXilW78BF2vZYN9CU-221" target="DR8zXilW78BF2vZYN9CU-203">
          <mxGeometry width="50" height="50" relative="1" as="geometry">
            <mxPoint x="1000" y="150" as="sourcePoint" />
            <mxPoint x="1160" y="153" as="targetPoint" />
          </mxGeometry>
        </mxCell>
        <mxCell id="DR8zXilW78BF2vZYN9CU-224" value="" style="endArrow=classic;html=1;rounded=0;entryX=1;entryY=0.75;entryDx=0;entryDy=0;exitX=1;exitY=0.5;exitDx=0;exitDy=0;" edge="1" parent="1" source="DR8zXilW78BF2vZYN9CU-222" target="DR8zXilW78BF2vZYN9CU-195">
          <mxGeometry width="50" height="50" relative="1" as="geometry">
            <mxPoint x="1010" y="160" as="sourcePoint" />
            <mxPoint x="1170" y="163" as="targetPoint" />
          </mxGeometry>
        </mxCell>
        <mxCell id="DR8zXilW78BF2vZYN9CU-225" value="" style="endArrow=classic;html=1;rounded=0;exitX=0.5;exitY=1;exitDx=0;exitDy=0;entryX=0.5;entryY=0;entryDx=0;entryDy=0;" edge="1" parent="1" source="DR8zXilW78BF2vZYN9CU-209" target="DR8zXilW78BF2vZYN9CU-190">
          <mxGeometry width="50" height="50" relative="1" as="geometry">
            <mxPoint x="1090" y="125" as="sourcePoint" />
            <mxPoint x="1140" y="75" as="targetPoint" />
          </mxGeometry>
        </mxCell>
        <mxCell id="DR8zXilW78BF2vZYN9CU-226" value="" style="endArrow=classic;html=1;rounded=0;exitX=0.5;exitY=1;exitDx=0;exitDy=0;entryX=0.5;entryY=0;entryDx=0;entryDy=0;" edge="1" parent="1" source="DR8zXilW78BF2vZYN9CU-209" target="DR8zXilW78BF2vZYN9CU-198">
          <mxGeometry width="50" height="50" relative="1" as="geometry">
            <mxPoint x="1200" y="95" as="sourcePoint" />
            <mxPoint x="1141" y="135" as="targetPoint" />
          </mxGeometry>
        </mxCell>
        <mxCell id="DR8zXilW78BF2vZYN9CU-227" value="" style="endArrow=classic;html=1;rounded=0;exitX=0.5;exitY=1;exitDx=0;exitDy=0;entryX=0.5;entryY=0;entryDx=0;entryDy=0;" edge="1" parent="1" source="DR8zXilW78BF2vZYN9CU-209" target="DR8zXilW78BF2vZYN9CU-202">
          <mxGeometry width="50" height="50" relative="1" as="geometry">
            <mxPoint x="1310" y="85" as="sourcePoint" />
            <mxPoint x="1151" y="145" as="targetPoint" />
          </mxGeometry>
        </mxCell>
        <mxCell id="DR8zXilW78BF2vZYN9CU-228" value="" style="endArrow=classic;html=1;rounded=0;exitX=0.5;exitY=1;exitDx=0;exitDy=0;entryX=0.5;entryY=0;entryDx=0;entryDy=0;" edge="1" parent="1" source="DR8zXilW78BF2vZYN9CU-209" target="DR8zXilW78BF2vZYN9CU-194">
          <mxGeometry width="50" height="50" relative="1" as="geometry">
            <mxPoint x="1370" y="85" as="sourcePoint" />
            <mxPoint x="1261" y="135" as="targetPoint" />
          </mxGeometry>
        </mxCell>
        <mxCell id="DR8zXilW78BF2vZYN9CU-229" value="Data" style="rounded=1;whiteSpace=wrap;html=1;verticalAlign=top;" vertex="1" parent="1">
          <mxGeometry x="-290" y="55" width="140" height="60" as="geometry" />
        </mxCell>
        <mxCell id="DR8zXilW78BF2vZYN9CU-230" value="Instructions" style="rounded=1;whiteSpace=wrap;html=1;verticalAlign=top;" vertex="1" parent="1">
          <mxGeometry x="-560" y="125" width="120" height="60" as="geometry" />
        </mxCell>
        <mxCell id="DR8zXilW78BF2vZYN9CU-231" value="" style="group" vertex="1" connectable="0" parent="1">
          <mxGeometry x="-408" y="145" width="50" height="40" as="geometry" />
        </mxCell>
        <mxCell id="DR8zXilW78BF2vZYN9CU-232" value="" style="rounded=0;whiteSpace=wrap;html=1;" vertex="1" parent="DR8zXilW78BF2vZYN9CU-231">
          <mxGeometry width="17.5" height="18.674285714285713" as="geometry" />
        </mxCell>
        <mxCell id="DR8zXilW78BF2vZYN9CU-233" value="" style="rounded=0;whiteSpace=wrap;html=1;" vertex="1" parent="DR8zXilW78BF2vZYN9CU-231">
          <mxGeometry x="32.5" width="17.5" height="18.674285714285713" as="geometry" />
        </mxCell>
        <mxCell id="DR8zXilW78BF2vZYN9CU-234" value="" style="shape=loopLimit;whiteSpace=wrap;html=1;rotation=-180;size=22;" vertex="1" parent="DR8zXilW78BF2vZYN9CU-231">
          <mxGeometry y="10.731707317073173" width="50" height="29.26829268292683" as="geometry" />
        </mxCell>
        <mxCell id="DR8zXilW78BF2vZYN9CU-247" value="Data" style="rounded=1;whiteSpace=wrap;html=1;verticalAlign=top;" vertex="1" parent="1">
          <mxGeometry x="-440" y="55" width="140" height="60" as="geometry" />
        </mxCell>
        <mxCell id="DR8zXilW78BF2vZYN9CU-248" value="0" style="rounded=0;whiteSpace=wrap;html=1;" vertex="1" parent="1">
          <mxGeometry x="-430" y="75" width="30" height="30" as="geometry" />
        </mxCell>
        <mxCell id="DR8zXilW78BF2vZYN9CU-249" value="1" style="rounded=0;whiteSpace=wrap;html=1;" vertex="1" parent="1">
          <mxGeometry x="-400" y="75" width="30" height="30" as="geometry" />
        </mxCell>
        <mxCell id="DR8zXilW78BF2vZYN9CU-250" value="2" style="rounded=0;whiteSpace=wrap;html=1;" vertex="1" parent="1">
          <mxGeometry x="-370" y="75" width="30" height="30" as="geometry" />
        </mxCell>
        <mxCell id="DR8zXilW78BF2vZYN9CU-251" value="3" style="rounded=0;whiteSpace=wrap;html=1;" vertex="1" parent="1">
          <mxGeometry x="-340" y="75" width="30" height="30" as="geometry" />
        </mxCell>
        <mxCell id="DR8zXilW78BF2vZYN9CU-252" value="0" style="rounded=0;whiteSpace=wrap;html=1;" vertex="1" parent="1">
          <mxGeometry x="-280.5" y="75" width="30" height="30" as="geometry" />
        </mxCell>
        <mxCell id="DR8zXilW78BF2vZYN9CU-253" value="1" style="rounded=0;whiteSpace=wrap;html=1;" vertex="1" parent="1">
          <mxGeometry x="-250.5" y="75" width="30" height="30" as="geometry" />
        </mxCell>
        <mxCell id="DR8zXilW78BF2vZYN9CU-254" value="2" style="rounded=0;whiteSpace=wrap;html=1;" vertex="1" parent="1">
          <mxGeometry x="-220.5" y="75" width="30" height="30" as="geometry" />
        </mxCell>
        <mxCell id="DR8zXilW78BF2vZYN9CU-255" value="3" style="rounded=0;whiteSpace=wrap;html=1;" vertex="1" parent="1">
          <mxGeometry x="-190.5" y="75" width="30" height="30" as="geometry" />
        </mxCell>
        <mxCell id="DR8zXilW78BF2vZYN9CU-256" value="" style="endArrow=classic;html=1;rounded=0;entryX=0.5;entryY=0;entryDx=0;entryDy=0;exitX=0.5;exitY=1;exitDx=0;exitDy=0;" edge="1" parent="1" source="DR8zXilW78BF2vZYN9CU-248" target="DR8zXilW78BF2vZYN9CU-232">
          <mxGeometry width="50" height="50" relative="1" as="geometry">
            <mxPoint x="-453" y="-65" as="sourcePoint" />
            <mxPoint x="-363" y="-5" as="targetPoint" />
          </mxGeometry>
        </mxCell>
        <mxCell id="DR8zXilW78BF2vZYN9CU-260" value="" style="endArrow=classic;html=1;rounded=0;entryX=1;entryY=0.75;entryDx=0;entryDy=0;exitX=1;exitY=0.5;exitDx=0;exitDy=0;" edge="1" parent="1" source="DR8zXilW78BF2vZYN9CU-262" target="DR8zXilW78BF2vZYN9CU-234">
          <mxGeometry width="50" height="50" relative="1" as="geometry">
            <mxPoint x="-508" y="155" as="sourcePoint" />
            <mxPoint x="-389" y="155" as="targetPoint" />
          </mxGeometry>
        </mxCell>
        <mxCell id="DR8zXilW78BF2vZYN9CU-262" value="+" style="rounded=0;whiteSpace=wrap;html=1;" vertex="1" parent="1">
          <mxGeometry x="-545" y="145" width="90" height="30" as="geometry" />
        </mxCell>
        <mxCell id="DR8zXilW78BF2vZYN9CU-265" value="" style="endArrow=classic;html=1;rounded=0;exitX=0.5;exitY=1;exitDx=0;exitDy=0;entryX=0.5;entryY=0;entryDx=0;entryDy=0;" edge="1" parent="1" source="DR8zXilW78BF2vZYN9CU-252" target="DR8zXilW78BF2vZYN9CU-233">
          <mxGeometry width="50" height="50" relative="1" as="geometry">
            <mxPoint x="-408" y="145" as="sourcePoint" />
            <mxPoint x="-358" y="95" as="targetPoint" />
          </mxGeometry>
        </mxCell>
      </root>
    </mxGraphModel>
  </diagram>
</mxfile>
